<?xml version="1.0" encoding="UTF-8" standalone="no"?>
<!-- Created with Inkscape (http://www.inkscape.org/) -->

<svg
   xmlns:dc="http://purl.org/dc/elements/1.1/"
   xmlns:cc="http://creativecommons.org/ns#"
   xmlns:rdf="http://www.w3.org/1999/02/22-rdf-syntax-ns#"
   xmlns:svg="http://www.w3.org/2000/svg"
   xmlns="http://www.w3.org/2000/svg"
   xmlns:xlink="http://www.w3.org/1999/xlink"
   xmlns:sodipodi="http://sodipodi.sourceforge.net/DTD/sodipodi-0.dtd"
   xmlns:inkscape="http://www.inkscape.org/namespaces/inkscape"
   width="128"
   height="512"
   viewBox="0 0 128 512"
   id="svg2"
   version="1.1"
   inkscape:version="0.91 r13725"
   sodipodi:docname="legs.svg"
   inkscape:export-filename="/home/zlsa/projects/online/spacex-info/images/vehicles/fh/legs.png"
   inkscape:export-xdpi="90"
   inkscape:export-ydpi="90">
  <defs
     id="defs4">
    <linearGradient
       inkscape:collect="always"
       id="linearGradient5977">
      <stop
         style="stop-color:#ff8800;stop-opacity:1;"
         offset="0"
         id="stop5979" />
      <stop
         style="stop-color:#ff8800;stop-opacity:0;"
         offset="1"
         id="stop5981" />
    </linearGradient>
    <linearGradient
       inkscape:collect="always"
       id="linearGradient5799">
      <stop
         style="stop-color:#ff8800;stop-opacity:1;"
         offset="0"
         id="stop5801" />
      <stop
         style="stop-color:#ff8800;stop-opacity:0;"
         offset="1"
         id="stop5803" />
    </linearGradient>
    <linearGradient
       inkscape:collect="always"
       xlink:href="#linearGradient5799"
       id="linearGradient5861"
       gradientUnits="userSpaceOnUse"
       x1="112"
       y1="929.3621826171875"
       x2="104"
       y2="965.3621826171875"
       gradientTransform="matrix(-1,0,0,1,255,0)" />
    <linearGradient
       inkscape:collect="always"
       xlink:href="#linearGradient5799"
       id="linearGradient5907"
       gradientUnits="userSpaceOnUse"
       gradientTransform="matrix(-1,0,0,1,256,0)"
       x1="112"
       y1="929.3621826171875"
       x2="104"
       y2="965.3621826171875" />
    <linearGradient
       inkscape:collect="always"
       xlink:href="#linearGradient5977"
       id="linearGradient6157"
       gradientUnits="userSpaceOnUse"
       gradientTransform="matrix(-1,0,0,1,256,0)"
       x1="112"
       y1="929.3621826171875"
       x2="108"
       y2="962.3621826171875" />
  </defs>
  <sodipodi:namedview
     id="base"
     pagecolor="#dcdcdc"
     bordercolor="#666666"
     borderopacity="1.0"
     inkscape:pageopacity="0"
     inkscape:pageshadow="2"
     inkscape:zoom="5.656854242030478"
     inkscape:cx="49.42774774723943"
     inkscape:cy="22.66506124124092"
     inkscape:document-units="px"
     inkscape:current-layer="g5808"
     showgrid="false"
     inkscape:window-width="1600"
     inkscape:window-height="862"
     inkscape:window-x="0"
     inkscape:window-y="18"
     inkscape:window-maximized="0"
     units="px"
     inkscape:object-nodes="true"
     inkscape:snap-smooth-nodes="true"
     showguides="false"
     inkscape:guide-bbox="true"
     inkscape:snap-center="true"
     inkscape:snap-global="true"
     inkscape:snap-nodes="true">
    <inkscape:grid
       type="xygrid"
       id="grid3336" />
    <sodipodi:guide
       position="64,1120"
       orientation="1,0"
       id="guide4446" />
    <sodipodi:guide
       position="128,1120"
       orientation="1,0"
       id="guide4448" />
    <sodipodi:guide
       position="192,1120"
       orientation="1,0"
       id="guide4450" />
    <sodipodi:guide
       position="256,1120"
       orientation="1,0"
       id="guide4452" />
    <sodipodi:guide
       position="320,1120"
       orientation="1,0"
       id="guide4454" />
    <sodipodi:guide
       position="384,1120"
       orientation="1,0"
       id="guide4456" />
    <sodipodi:guide
       position="448,1120"
       orientation="1,0"
       id="guide5724" />
    <sodipodi:guide
       position="512,1120"
       orientation="1,0"
       id="guide6041" />
    <sodipodi:guide
       position="576,1120"
       orientation="1,0"
       id="guide6043" />
    <sodipodi:guide
       position="640,1120"
       orientation="1,0"
       id="guide6045" />
    <sodipodi:guide
       position="704,1120"
       orientation="1,0"
       id="guide6047" />
    <sodipodi:guide
       position="768,1120"
       orientation="1,0"
       id="guide4499" />
    <sodipodi:guide
       position="832,1120"
       orientation="1,0"
       id="guide4501" />
    <sodipodi:guide
       position="896,1120"
       orientation="1,0"
       id="guide4503" />
    <sodipodi:guide
       position="40,908"
       orientation="0,1"
       id="guide5429" />
    <sodipodi:guide
       position="44,840"
       orientation="0,1"
       id="guide6633" />
    <sodipodi:guide
       position="84,518"
       orientation="0,1"
       id="guide6665" />
    <sodipodi:guide
       position="136,348"
       orientation="0,1"
       id="guide6667" />
    <sodipodi:guide
       position="136,428"
       orientation="0,1"
       id="guide6793" />
    <sodipodi:guide
       position="138,26"
       orientation="0,1"
       id="guide6795" />
    <sodipodi:guide
       position="960,1120"
       orientation="1,0"
       id="guide6871" />
  </sodipodi:namedview>
  <metadata
     id="metadata7">
    <rdf:RDF>
      <cc:Work
         rdf:about="">
        <dc:format>image/svg+xml</dc:format>
        <dc:type
           rdf:resource="http://purl.org/dc/dcmitype/StillImage" />
        <dc:title />
      </cc:Work>
    </rdf:RDF>
  </metadata>
  <g
     inkscape:label="Layer 1"
     inkscape:groupmode="layer"
     id="layer1"
     transform="translate(0,-540.3621399999999)">
    <g
       id="g5808"
       transform="translate(0,512)"
       inkscape:transform-center-y="-190">
      <path
         style="fill:#ffffff;fill-opacity:1;fill-rule:evenodd;stroke:#404040;stroke-width:2;stroke-linecap:butt;stroke-linejoin:round;stroke-miterlimit:4;stroke-dasharray:none;stroke-opacity:1"
         d="m 71,480.36214 c 1,-1 4,0 4,0 0,-4 -0.57140100000001,-3.91231 -2,-5 -1.31342000000001,-1 -1,-1 -2,5 z"
         id="path7764"
         inkscape:connector-curvature="0"
         sodipodi:nodetypes="ccsc" />
      <path
         sodipodi:nodetypes="ccsc"
         inkscape:connector-curvature="0"
         id="path7796"
         d="m 57,480.36214 c -1,-1 -4,0 -4,0 0,-4 0.571401,-3.91231 2,-5 1.31342,-1 1,-1 2,5 z"
         style="fill:#ffffff;fill-opacity:1;fill-rule:evenodd;stroke:#404040;stroke-width:2;stroke-linecap:butt;stroke-linejoin:round;stroke-miterlimit:4;stroke-dasharray:none;stroke-opacity:1" />
      <g
         id="g4664">
        <path
           style="fill:#ffffff;fill-opacity:1;fill-rule:evenodd;stroke:#404040;stroke-width:2;stroke-linecap:butt;stroke-linejoin:round;stroke-miterlimit:4;stroke-dasharray:none;stroke-opacity:1"
           d="m 65,526.3621399999999 0,-1 L 67.60064299999999,505.85732 66.871921,504.34005 67.967319,503.10725 69.181598,494.0001599999999 l -0.79781100000001,-1.57362 1.17606600000002,-1.2633 L 71,480.36214 c 1,-1 4,0 4,0 0,0 3,25 4,45.9999999999999 l -1,0 c 0,0 -2,-11.9999999999999 -4,-11.9999999999999 -4,0 -8,11.9999999999999 -8,11.9999999999999 z"
           id="path7762"
           inkscape:connector-curvature="0"
           sodipodi:nodetypes="ccccccccccccccc" />
        <path
           style="fill:#404040;fill-opacity:1;fill-rule:evenodd;stroke:none;stroke-width:1px;stroke-linecap:butt;stroke-linejoin:miter;stroke-opacity:1"
           d="m 78,514.3621399999999 c -2,-10.9999999999999 -7,-5.9999999999999 -9,1 3,-5.9999999999999 7,-7.9999999999999 9,-1 z"
           id="path7766"
           inkscape:connector-curvature="0"
           sodipodi:nodetypes="ccc" />
        <path
           style="fill:#8a8a8a;fill-opacity:1;fill-rule:evenodd;stroke:none;stroke-width:1px;stroke-linecap:butt;stroke-linejoin:miter;stroke-opacity:1"
           d="m 70,488.36214 c 0,0 2,-2 6,-2 l 0,1 c -3,0 -6,3 -6,3 z"
           id="path9730"
           inkscape:connector-curvature="0"
           sodipodi:nodetypes="ccccc" />
        <path
           sodipodi:nodetypes="ccccc"
           inkscape:connector-curvature="0"
           id="path7768"
           d="m 75.41718399999999,486.12975 c -2.837093,0.80055 -3.651939,-1.08671 -4.174573,-3.63714 L 71.489648,481.39603 c 0.59087299999999,2.08398 1.26805999999999,3.63299 3.84545,2.64302 z"
           style="fill:#404040;fill-opacity:1;fill-rule:evenodd;stroke:none;stroke-width:1px;stroke-linecap:butt;stroke-linejoin:miter;stroke-opacity:1" />
        <path
           sodipodi:nodetypes="ccccccccccccccc"
           inkscape:connector-curvature="0"
           id="path9756"
           d="m 65,526.3621399999999 0,-1 L 67.60064299999999,505.85732 66.871921,504.34005 67.967319,503.10725 69.181598,494.0001599999999 l -0.79781100000001,-1.57362 1.17606600000002,-1.2633 L 71,480.36214 c 1,-1 4,0 4,0 0,0 3,25 4,45.9999999999999 l -1,0 c 0,0 -2,-11.9999999999999 -4,-11.9999999999999 -4,0 -8,11.9999999999999 -8,11.9999999999999 z"
           style="fill:none;fill-opacity:1;fill-rule:evenodd;stroke:#404040;stroke-width:2;stroke-linecap:butt;stroke-linejoin:round;stroke-miterlimit:4;stroke-dasharray:none;stroke-opacity:1" />
      </g>
      <g
         transform="matrix(-1,0,0,1,112,12)"
         id="g7788">
        <path
           sodipodi:nodetypes="ccccccccccccccc"
           inkscape:connector-curvature="0"
           id="path7790"
           d="m 49,514.3621399999999 0,-1 L 51.600643,493.85732 50.871921,492.34005 51.96731900000001,491.10725 53.181598,482.0001599999999 l -0.797811,-1.57362 1.176066,-1.2633 L 55,468.36214 c 1,-1 4,0 4,0 0,0 3,25 4,45.9999999999999 l -1,0 c 0,0 -2,-11.9999999999998 -4,-11.9999999999998 -4,0 -8,11.9999999999998 -8,11.9999999999998 z"
           style="fill:#ffffff;fill-opacity:1;fill-rule:evenodd;stroke:#404040;stroke-width:2;stroke-linecap:butt;stroke-linejoin:round;stroke-miterlimit:4;stroke-dasharray:none;stroke-opacity:1" />
        <path
           sodipodi:nodetypes="ccc"
           inkscape:connector-curvature="0"
           id="path7792"
           d="m 62,502.36214 c -2,-11 -7,-6 -9,1 3,-6 7,-8 9,-1 z"
           style="fill:#404040;fill-opacity:1;fill-rule:evenodd;stroke:none;stroke-width:1px;stroke-linecap:butt;stroke-linejoin:miter;stroke-opacity:1" />
        <path
           style="fill:#404040;fill-opacity:1;fill-rule:evenodd;stroke:none;stroke-width:1px;stroke-linecap:butt;stroke-linejoin:miter;stroke-opacity:1"
           d="m 59.417184,474.12975 c -2.837093,0.80055 -3.651939,-1.08671 -4.174573,-3.63714 L 55.489648,469.39603 c 0.59087299999999,2.08398 1.26806,3.63299 3.84545,2.64302 z"
           id="path7794"
           inkscape:connector-curvature="0"
           sodipodi:nodetypes="ccccc" />
      </g>
      <path
         sodipodi:nodetypes="ccsc"
         inkscape:connector-curvature="0"
         id="path4671"
         d="m 101,480.36214 c 1,-1 4,0 4,0 0,-4 -0.571401,-3.91231 -2,-5 -1.31342,-1 -1,-1 -2,5 z"
         style="fill:#ffffff;fill-opacity:1;fill-rule:evenodd;stroke:#404040;stroke-width:2;stroke-linecap:butt;stroke-linejoin:round;stroke-miterlimit:4;stroke-dasharray:none;stroke-opacity:1" />
      <path
         style="fill:#ffffff;fill-opacity:1;fill-rule:evenodd;stroke:#404040;stroke-width:2;stroke-linecap:butt;stroke-linejoin:round;stroke-miterlimit:4;stroke-dasharray:none;stroke-opacity:1"
         d="m 87,480.36214 c -1,-1 -4,0 -4,0 0,-4 0.57140099999999,-3.91231 2,-5 1.31341999999999,-1 1,-1 2,5 z"
         id="path4673"
         inkscape:connector-curvature="0"
         sodipodi:nodetypes="ccsc" />
      <g
         id="g4675"
         transform="translate(30,0)">
        <path
           sodipodi:nodetypes="ccccccccccccccc"
           inkscape:connector-curvature="0"
           id="path4677"
           d="m 65,526.3621399999999 0,-1 L 67.60064299999999,505.85732 66.871921,504.34005 l 1.095398,-1.2328 1.21427899999999,-9.1070900000001 -0.79781100000001,-1.57362 1.17606600000002,-1.2633 L 71,480.36214 c 1,-1 4,0 4,0 0,0 3,25 4,45.9999999999999 l -1,0 c 0,0 -2,-12 -4,-12 -4,0 -8,12 -8,12 z"
           style="fill:#ffffff;fill-opacity:1;fill-rule:evenodd;stroke:#404040;stroke-width:2;stroke-linecap:butt;stroke-linejoin:round;stroke-miterlimit:4;stroke-dasharray:none;stroke-opacity:1" />
        <path
           sodipodi:nodetypes="ccc"
           inkscape:connector-curvature="0"
           id="path4679"
           d="m 78,514.3621399999999 c -2,-10.9999999999998 -7,-5.9999999999998 -9,1 3,-5.9999999999998 7,-7.9999999999998 9,-1 z"
           style="fill:#404040;fill-opacity:1;fill-rule:evenodd;stroke:none;stroke-width:1px;stroke-linecap:butt;stroke-linejoin:miter;stroke-opacity:1" />
        <path
           style="fill:#404040;fill-opacity:1;fill-rule:evenodd;stroke:none;stroke-width:1px;stroke-linecap:butt;stroke-linejoin:miter;stroke-opacity:1"
           d="m 75.41718399999999,486.12975 c -2.837093,0.80055 -3.651939,-1.08671 -4.174573,-3.63714 L 71.489648,481.39603 c 0.59087299999999,2.08398 1.26805999999999,3.63299 3.84545,2.64302 z"
           id="path4683"
           inkscape:connector-curvature="0"
           sodipodi:nodetypes="ccccc" />
        <path
           style="fill:none;fill-opacity:1;fill-rule:evenodd;stroke:#404040;stroke-width:2;stroke-linecap:butt;stroke-linejoin:round;stroke-miterlimit:4;stroke-dasharray:none;stroke-opacity:1"
           d="m 65,526.3621399999999 0,-1 L 67.60064299999999,505.85732 66.871921,504.34005 l 1.095398,-1.2328 1.21427899999999,-9.1070900000001 -0.79781100000001,-1.57362 1.17606600000002,-1.2633 L 71,480.36214 c 1,-1 4,0 4,0 0,0 3,25 4,45.9999999999999 l -1,0 c 0,0 -2,-12 -4,-12 -4,0 -8,12 -8,12 z"
           id="path4685"
           inkscape:connector-curvature="0"
           sodipodi:nodetypes="ccccccccccccccc" />
      </g>
      <g
         id="g4687"
         transform="matrix(-1,0,0,1,142,12)">
        <path
           style="fill:#ffffff;fill-opacity:1;fill-rule:evenodd;stroke:#404040;stroke-width:2;stroke-linecap:butt;stroke-linejoin:round;stroke-miterlimit:4;stroke-dasharray:none;stroke-opacity:1"
           d="m 49,514.3621399999999 0,-1 L 51.600643,493.85732 50.871921,492.34005 51.96731900000001,491.10725 53.181598,482.0001599999999 l -0.797811,-1.57362 1.176066,-1.2633 L 55,468.36214 c 1,-1 4,0 4,0 0,0 3,25 4,45.9999999999999 l -1,0 c 0,0 -2,-11.9999999999998 -4,-11.9999999999998 -4,0 -8,11.9999999999998 -8,11.9999999999998 z"
           id="path4689"
           inkscape:connector-curvature="0"
           sodipodi:nodetypes="ccccccccccccccc" />
        <path
           style="fill:#404040;fill-opacity:1;fill-rule:evenodd;stroke:none;stroke-width:1px;stroke-linecap:butt;stroke-linejoin:miter;stroke-opacity:1"
           d="m 62,502.36214 c -2,-11 -7,-6 -9,1 3,-6 7,-8 9,-1 z"
           id="path4691"
           inkscape:connector-curvature="0"
           sodipodi:nodetypes="ccc" />
        <path
           sodipodi:nodetypes="ccccc"
           inkscape:connector-curvature="0"
           id="path4693"
           d="m 59.417184,474.12975 c -2.837093,0.80055 -3.651939,-1.08671 -4.174573,-3.63714 L 55.489648,469.39603 c 0.59087299999999,2.08398 1.26806,3.63299 3.84545,2.64302 z"
           style="fill:#404040;fill-opacity:1;fill-rule:evenodd;stroke:none;stroke-width:1px;stroke-linecap:butt;stroke-linejoin:miter;stroke-opacity:1" />
      </g>
      <path
         style="fill:#ffffff;fill-opacity:1;fill-rule:evenodd;stroke:#404040;stroke-width:2;stroke-linecap:butt;stroke-linejoin:round;stroke-miterlimit:4;stroke-dasharray:none;stroke-opacity:1"
         d="m 41,480.36214 c 1,-1 4,0 4,0 0,-4 -0.57140099999999,-3.91231 -2,-5 -1.31341999999999,-1 -1,-1 -2,5 z"
         id="path4695"
         inkscape:connector-curvature="0"
         sodipodi:nodetypes="ccsc" />
      <path
         sodipodi:nodetypes="ccsc"
         inkscape:connector-curvature="0"
         id="path4697"
         d="m 27,480.36214 c -1,-1 -4,0 -4,0 0,-4 0.57140099999999,-3.91231 2,-5 1.31341999999999,-1 1,-1 2,5 z"
         style="fill:#ffffff;fill-opacity:1;fill-rule:evenodd;stroke:#404040;stroke-width:2;stroke-linecap:butt;stroke-linejoin:round;stroke-miterlimit:4;stroke-dasharray:none;stroke-opacity:1" />
      <g
         transform="translate(-30,0)"
         id="g4699">
        <path
           style="fill:#ffffff;fill-opacity:1;fill-rule:evenodd;stroke:#404040;stroke-width:2;stroke-linecap:butt;stroke-linejoin:round;stroke-miterlimit:4;stroke-dasharray:none;stroke-opacity:1"
           d="m 65,526.3621399999999 0,-1 L 67.60064299999999,505.85732 66.871921,504.34005 l 1.095398,-1.2328 1.21427899999999,-9.1070900000001 -0.79781100000001,-1.57362 1.17606600000002,-1.2633 L 71,480.36214 c 1,-1 4,0 4,0 0,0 3,25 4,45.9999999999999 l -1,0 c 0,0 -2,-12 -4,-12 -4,0 -8,12 -8,12 z"
           id="path4701"
           inkscape:connector-curvature="0"
           sodipodi:nodetypes="ccccccccccccccc" />
        <path
           style="fill:#404040;fill-opacity:1;fill-rule:evenodd;stroke:none;stroke-width:1px;stroke-linecap:butt;stroke-linejoin:miter;stroke-opacity:1"
           d="m 78,514.3621399999999 c -2,-10.9999999999998 -7,-5.9999999999998 -9,1 3,-5.9999999999998 7,-7.9999999999998 9,-1 z"
           id="path4703"
           inkscape:connector-curvature="0"
           sodipodi:nodetypes="ccc" />
        <path
           sodipodi:nodetypes="ccccc"
           inkscape:connector-curvature="0"
           id="path4705"
           d="m 75.41718399999999,486.12975 c -2.837093,0.80055 -3.651939,-1.08671 -4.174573,-3.63714 L 71.489648,481.39603 c 0.59087299999999,2.08398 1.26805999999999,3.63299 3.84545,2.64302 z"
           style="fill:#404040;fill-opacity:1;fill-rule:evenodd;stroke:none;stroke-width:1px;stroke-linecap:butt;stroke-linejoin:miter;stroke-opacity:1" />
        <path
           sodipodi:nodetypes="ccccccccccccccc"
           inkscape:connector-curvature="0"
           id="path4707"
           d="m 65,526.3621399999999 0,-1 L 67.60064299999999,505.85732 66.871921,504.34005 l 1.095398,-1.2328 1.21427899999999,-9.1070900000001 -0.79781100000001,-1.57362 1.17606600000002,-1.2633 L 71,480.36214 c 1,-1 4,0 4,0 0,0 3,25 4,45.9999999999999 l -1,0 c 0,0 -2,-12 -4,-12 -4,0 -8,12 -8,12 z"
           style="fill:none;fill-opacity:1;fill-rule:evenodd;stroke:#404040;stroke-width:2;stroke-linecap:butt;stroke-linejoin:round;stroke-miterlimit:4;stroke-dasharray:none;stroke-opacity:1" />
      </g>
      <g
         transform="matrix(-1,0,0,1,82,12)"
         id="g4709">
        <path
           sodipodi:nodetypes="ccccccccccccccc"
           inkscape:connector-curvature="0"
           id="path4711"
           d="m 49,514.3621399999999 0,-1 L 51.600643,493.85732 50.871921,492.34005 51.96731900000001,491.10725 53.181598,482.0001599999999 l -0.797811,-1.57362 1.176066,-1.2633 L 55,468.36214 c 1,-1 4,0 4,0 0,0 3,25 4,45.9999999999999 l -1,0 c 0,0 -2,-11.9999999999998 -4,-11.9999999999998 -4,0 -8,11.9999999999998 -8,11.9999999999998 z"
           style="fill:#ffffff;fill-opacity:1;fill-rule:evenodd;stroke:#404040;stroke-width:2;stroke-linecap:butt;stroke-linejoin:round;stroke-miterlimit:4;stroke-dasharray:none;stroke-opacity:1" />
        <path
           sodipodi:nodetypes="ccc"
           inkscape:connector-curvature="0"
           id="path4713"
           d="m 62,502.36214 c -2,-11 -7,-6 -9,1 3,-6 7,-8 9,-1 z"
           style="fill:#404040;fill-opacity:1;fill-rule:evenodd;stroke:none;stroke-width:1px;stroke-linecap:butt;stroke-linejoin:miter;stroke-opacity:1" />
        <path
           style="fill:#404040;fill-opacity:1;fill-rule:evenodd;stroke:none;stroke-width:1px;stroke-linecap:butt;stroke-linejoin:miter;stroke-opacity:1"
           d="m 59.417184,474.12975 c -2.837093,0.80055 -3.651939,-1.08671 -4.174573,-3.63714 L 55.489648,469.39603 c 0.59087299999999,2.08398 1.26806,3.63299 3.84545,2.64302 z"
           id="path4715"
           inkscape:connector-curvature="0"
           sodipodi:nodetypes="ccccc" />
      </g>
    </g>
  </g>
</svg>
